<svg width="20" height="20" viewBox="0 0 20 20" fill="none" xmlns="http://www.w3.org/2000/svg">
<g id="new-file--empty-common-file-content" clip-path="url(#clip0_788_6285)">
<g id="new-file--empty-common-file-content_2">
<path id="Subtract" fill-rule="evenodd" clip-rule="evenodd" d="M11.2492 0.000244141H3.57059C3.00228 0.000244141 2.45722 0.226008 2.05536 0.627873C1.65351 1.02974 1.42773 1.57479 1.42773 2.1431V17.8574C1.42773 18.4257 1.65351 18.9708 2.05536 19.3727C2.45722 19.7745 3.00226 20.0002 3.57059 20.0002H16.4277C16.996 20.0002 17.5412 19.7745 17.943 19.3727C18.3449 18.9708 18.5706 18.4257 18.5706 17.8574V7.32167H12.142C11.6489 7.32167 11.2492 6.92193 11.2492 6.42882V0.000244141ZM17.9736 5.53596L13.0349 0.597234V5.53596H17.9736Z" fill="#9E9EA4"/>
</g>
</g>
<defs>
<clipPath id="clip0_788_6285">
<rect width="20" height="20" fill="white"/>
</clipPath>
</defs>
</svg>
