<svg width="40" height="40" viewBox="0 0 40 40" fill="none" xmlns="http://www.w3.org/2000/svg">
<rect width="40" height="40" rx="8" fill="#285FB0"/>
<path d="M14.4622 21.0913L9.80916 19.5753C9.80916 19.5753 9.25307 19.3496 9.43213 18.838C9.46899 18.7325 9.54335 18.6428 9.76579 18.4885C10.7968 17.7699 28.8486 11.2816 28.8486 11.2816C28.8486 11.2816 29.3583 11.1098 29.6589 11.2241C29.7332 11.2471 29.8002 11.2894 29.8528 11.3468C29.9054 11.4042 29.9418 11.4745 29.9584 11.5506C29.9909 11.6849 30.0044 11.8232 29.9987 11.9613C29.9973 12.0807 29.9828 12.1915 29.9719 12.3651C29.8619 14.1391 26.5718 27.3785 26.5718 27.3785C26.5718 27.3785 26.3749 28.1532 25.6696 28.1797C25.4963 28.1853 25.3237 28.156 25.1619 28.0934C25.0002 28.0308 24.8527 27.9363 24.7283 27.8156C23.3442 26.6251 18.5606 23.4102 17.5035 22.7032C17.4797 22.6869 17.4596 22.6658 17.4447 22.6411C17.4297 22.6164 17.4202 22.5888 17.4168 22.5602C17.402 22.4857 17.483 22.3934 17.483 22.3934C17.483 22.3934 25.8126 14.9894 26.0343 14.2122C26.0514 14.1519 25.9866 14.1222 25.8996 14.1486C25.3463 14.3521 15.7558 20.4086 14.6974 21.077C14.6212 21.1001 14.5406 21.105 14.4622 21.0913Z" fill="white"/>
</svg>
